<svg xmlns="http://www.w3.org/2000/svg" version="1.1" xmlns:xlink="http://www.w3.org/1999/xlink" xmlns:svgjs="http://svgjs.dev/svgjs" width="1000" height="882" viewBox="0 0 1000 882"><g transform="matrix(1,0,0,1,0.24542084565223377,0.35774442051081223)"><svg viewBox="0 0 280 247" data-background-color="#ffffff" preserveAspectRatio="xMidYMid meet" height="882" width="1000" xmlns="http://www.w3.org/2000/svg" xmlns:xlink="http://www.w3.org/1999/xlink"><g id="tight-bounds" transform="matrix(1,0,0,1,-0.06859417343571295,-0.09997365579206985)"><svg viewBox="0 0 280.1368882148929 247.2" height="247.2" width="280.1368882148929"><g><svg viewBox="0 0 280.1368882148929 247.2" height="247.2" width="280.1368882148929"><g><svg viewBox="0 0 280.1368882148929 247.2" height="247.2" width="280.1368882148929"><g id="textblocktransform"><svg viewBox="0 0 280.1368882148929 247.2" height="247.2" width="280.1368882148929" id="textblock"><g><svg viewBox="0 0 280.1368882148929 247.2" height="247.2" width="280.1368882148929"><path d="M279.481 53.02C278.164 27.36 274.411 20.227 274.411 20.227 262.887-6.202 248.506-0.506 235.586 3.292 212.776 3.446 190.058 9.091 167.3 12.119 119.533 12.581 71.358 4.986 23.828 23.717 19.364 29.464-4.632 24.846 0.794 56.304 2.216 69.39 7.405 83.913 7.247 95.922 7.959 98.026 8.946 93.202 9.368 96.23 10.843 104.39 13.253 100.541 15.228 105.365 12.476 118.246 14.451 128.971 16.335 140.21 13.016 143.135 8.762 141.749 6.852 151.449 6.655 158.479 5.588 157.145 4.416 156.837 3.56 156.632 1.835 157.402 2.124 159.608 3.112 167.152-1.129 171.514 1.532 178.904-0.299 186.91 2.796 193.838 2.375 202.511 2.322 204.255 2.612 205.744 3.073 206.154 5.114 208.361 2.137 212.672 2.454 217.342 23.394 249.262 46.112 227.195 67.565 241.872 73.136 231.608 68.948 245.516 71.174 243.36 72.912 240.846 74.176 251.263 76.139 245.362 76.442 243.668 75.981 239.665 77.061 240.435 77.627 240.846 78.127 240.743 78.206 238.382 78.325 234.841 77.285 237.048 77.008 235.201 79.998 225.861 79.26 248.081 82.065 247.158 81.933 244.438 81.117 240.538 82.79 241.051 84.449 237.151 84.502 233.918 85.977 242.693 86.029 244.592 86.293 245.926 86.714 246.85 91.324 237.305 95.907 250.237 100.74 245.926 103.703 241.205 106.548 248.492 109.551 246.696 110.604 245.259 111.671 242.693 112.685 247.004 125.104 247.928 138.34 244.079 150.114 247.158 181.576 241.41 215.199 249.518 248.374 241.923 256.197 238.998 264.323 234.841 271.948 231.506 271.948 231.506 278.125 222.371 278.125 181.316S279.442 145.393 279.639 112.703C279.837 80.013 280.759 78.679 279.442 53.02Z" opacity="1" fill="#ef2929" data-fill-palette-color="tertiary"></path><g transform="matrix(1,0,0,1,55.76832000000002,26.230666666666668)"><svg width="168.60024821489287" viewBox="2.494186046511628 -34.6 29.955813953488374 34.6" height="194.73866666666666" data-palette-color="#ffffff"><path d="M18.3-13.65Q17.35-13.3 16.75-13.3L16.75-13.3Q15.65-13.3 14.68-14.05 13.7-14.8 13.05-16.1L13.05-16.1 14.45-17Q16.85-18.6 18-19.45L18-19.45Q21.85-22.45 24.7-25.05L24.7-25.05Q25.25-25.5 26-26.9L26-26.9 26.7-28.1 25.8-28.55Q25.65-28.6 25.13-28.83 24.6-29.05 24.25-29.1L24.25-29.1Q19.9-29.55 14.5-29.9L14.5-29.9Q12.8-30.05 12.3-28.05L12.3-28.05 8.1-8.6Q7.75-7.1 7.55-5.98 7.35-4.85 7.2-4.1L7.2-4.1 6.75-1.85Q6.55-1.05 6.1-0.58 5.65-0.1 4.8-0.05L4.8-0.05 4.15 0Q3.2 0 2.83-0.45 2.45-0.9 2.5-2.05L2.5-2.05 2.6-4.05Q2.9-9.95 3.35-12.9L3.35-12.9Q3.65-15.05 4.23-17.65 4.8-20.25 5-21.05L5-21.05Q5.7-23.95 6-25.45L6-25.45 3.4-25.9Q2.8-27.2 2.8-28.15L2.8-28.15Q2.8-29.75 4.3-31.4L4.3-31.4Q5.35-32.6 6.8-33.35 8.25-34.1 9.8-34.35L9.8-34.35Q12.05-34.6 13.8-34.6L13.8-34.6Q20.65-34.6 27.7-31.7L27.7-31.7Q28.55-31.35 29.4-30.63 30.25-29.9 30.5-29.7L30.5-29.7Q32.45-28.05 32.45-26.25L32.45-26.25Q32.45-25.05 31.7-23.6L31.7-23.6Q31.3-22.75 30.35-21.65L30.35-21.65Q25.7-16.55 18.3-13.65L18.3-13.65Z" opacity="1" transform="matrix(1,0,0,1,0,0)" fill="#ffffff" class="wordmark-text-0" data-fill-palette-color="quaternary" id="text-0"></path></svg></g></svg></g></svg></g></svg></g><g></g></svg></g><defs></defs></svg><rect width="280.1368882148929" height="247.2" fill="none" stroke="none" visibility="hidden"></rect></g></svg></g></svg>